<svg id="svg" version="1.1" xmlns="http://www.w3.org/2000/svg" xmlns:xlink="http://www.w3.org/1999/xlink" width="400" height="400" viewBox="0, 0, 400,400"><g id="svgg"><path id="path0" d="M186.296 12.630 C 172.581 14.107,171.238 14.304,161.296 16.291 C 150.168 18.515,135.087 23.309,125.637 27.625 C 124.562 28.117,123.595 28.519,123.489 28.519 C 122.722 28.519,108.823 35.821,103.519 39.012 C 97.212 42.806,83.989 51.988,82.963 53.287 C 82.861 53.416,81.581 54.477,80.118 55.645 C 69.081 64.457,56.146 78.519,45.714 93.046 C 37.106 105.034,27.251 124.601,22.253 139.630 C 15.483 159.984,12.791 175.778,12.340 197.778 C 11.868 220.820,17.181 250.689,24.924 268.519 C 25.233 269.231,25.939 270.898,26.493 272.222 C 28.757 277.638,31.742 284.080,32.928 286.111 C 33.285 286.722,34.310 288.639,35.204 290.370 C 38.740 297.210,43.757 304.951,50.185 313.484 C 53.454 317.824,55.061 319.847,57.525 322.731 C 68.033 335.026,82.066 347.451,95.732 356.558 C 100.897 359.999,103.204 361.425,109.259 364.917 C 110.817 365.815,122.127 371.481,122.361 371.481 C 122.452 371.481,123.750 372.043,125.245 372.728 C 134.550 376.997,150.305 382.115,160.185 384.080 C 171.972 386.423,177.495 387.178,188.520 387.955 C 221.607 390.288,256.619 382.978,286.340 367.532 C 290.774 365.228,299.933 359.990,300.917 359.197 C 301.126 359.028,303.046 357.747,305.185 356.349 C 307.324 354.951,310.926 352.408,313.188 350.697 C 317.170 347.687,318.049 346.976,324.057 341.896 C 331.657 335.469,344.040 322.098,350.681 313.148 C 352.343 310.907,353.864 308.879,354.061 308.641 C 354.683 307.887,359.817 299.927,361.546 297.037 C 371.365 280.623,377.846 264.958,382.997 245.185 C 383.557 243.035,385.549 232.957,385.962 230.185 C 388.060 216.108,388.807 203.444,388.188 192.485 C 387.379 178.156,385.420 164.672,382.581 153.889 C 382.152 152.259,381.671 150.426,381.512 149.815 C 377.858 135.775,368.739 114.883,360.579 101.856 C 356.309 95.039,348.009 83.401,345.474 80.677 C 345.213 80.397,343.921 78.921,342.601 77.398 C 336.478 70.330,326.127 60.064,321.564 56.533 C 321.010 56.104,320.222 55.444,319.815 55.067 C 319.046 54.356,309.776 47.308,308.148 46.196 C 296.045 37.934,284.425 31.518,273.148 26.869 C 271.315 26.113,269.231 25.239,268.519 24.928 C 267.806 24.616,264.016 23.293,260.096 21.987 C 245.573 17.151,232.734 14.433,217.222 12.913 C 211.907 12.392,190.342 12.195,186.296 12.630 M215.741 20.773 C 220.586 21.239,227.602 22.124,230.185 22.594 C 231.204 22.779,233.120 23.127,234.444 23.367 C 245.566 25.384,260.993 30.100,271.296 34.632 C 279.140 38.082,287.190 42.216,293.148 45.854 C 296.290 47.772,304.759 53.336,305.686 54.091 C 305.920 54.282,307.528 55.522,309.259 56.848 C 317.081 62.838,323.097 68.244,331.312 76.667 C 334.953 80.399,339.034 85.236,344.259 92.009 C 344.870 92.801,345.719 93.881,346.146 94.410 C 357.269 108.195,370.088 135.941,375.336 157.593 C 376.333 161.704,376.637 163.134,377.231 166.481 C 377.556 168.315,377.974 170.565,378.160 171.481 C 378.544 173.371,379.400 180.696,379.980 187.059 C 381.043 198.716,380.038 219.073,377.805 231.111 C 376.507 238.108,375.455 242.985,374.648 245.741 C 374.350 246.759,373.537 249.593,372.841 252.037 C 371.622 256.321,370.753 258.823,367.439 267.593 C 355.573 298.991,329.497 330.886,299.578 350.597 C 294.462 353.967,288.410 357.554,284.074 359.787 C 282.546 360.573,281.130 361.335,280.926 361.479 C 279.394 362.566,266.782 367.939,261.852 369.605 C 260.528 370.053,259.111 370.564,258.704 370.742 C 257.757 371.156,251.309 373.146,246.852 374.401 C 244.444 375.078,237.820 376.577,234.630 377.165 C 220.275 379.813,211.667 380.521,197.222 380.244 C 182.642 379.964,175.000 379.083,160.000 375.952 C 159.083 375.760,157.417 375.354,156.296 375.049 C 155.176 374.744,152.991 374.154,151.441 373.737 C 149.890 373.321,146.848 372.393,144.681 371.675 C 142.513 370.958,140.490 370.370,140.185 370.370 C 139.879 370.370,139.630 370.204,139.630 370.000 C 139.630 369.796,139.383 369.630,139.082 369.630 C 138.780 369.630,136.822 368.955,134.730 368.131 C 122.806 363.434,111.743 357.712,101.891 351.146 C 98.959 349.192,96.290 347.426,95.959 347.222 C 95.308 346.820,92.523 344.752,92.222 344.446 C 92.120 344.342,91.037 343.511,89.815 342.599 C 88.593 341.687,86.513 340.021,85.194 338.897 C 83.875 337.772,82.210 336.352,81.493 335.741 C 75.500 330.629,63.602 318.069,58.873 311.861 C 57.558 310.135,56.284 308.468,56.043 308.158 C 48.298 298.187,40.284 284.331,34.829 271.481 C 33.748 268.935,32.578 266.185,32.228 265.370 C 29.981 260.132,25.289 244.424,24.041 237.963 C 22.583 230.416,21.556 223.472,20.700 215.370 C 20.121 209.891,20.121 190.937,20.699 185.370 C 21.299 179.607,22.537 170.274,22.985 168.148 C 23.178 167.231,23.512 165.481,23.728 164.259 C 26.983 145.786,36.417 122.413,48.094 103.889 C 51.692 98.181,55.649 92.715,61.226 85.746 C 63.739 82.606,67.781 78.163,72.222 73.656 C 76.627 69.187,77.820 68.077,83.317 63.333 C 84.616 62.213,85.859 61.127,86.080 60.920 C 90.115 57.140,102.790 48.493,112.264 43.055 C 118.866 39.265,122.772 37.404,133.790 32.795 C 157.165 23.017,189.608 18.258,215.741 20.773 M189.815 23.187 C 180.436 23.909,173.948 24.761,164.815 26.471 C 157.685 27.805,142.242 32.270,137.222 34.448 C 136.815 34.625,134.398 35.629,131.852 36.679 C 124.206 39.833,114.739 44.640,107.778 48.904 C 105.237 50.460,95.436 57.064,95.185 57.388 C 95.083 57.520,94.417 58.029,93.704 58.519 C 92.991 59.008,92.324 59.504,92.222 59.621 C 92.120 59.738,91.287 60.404,90.370 61.102 C 89.454 61.799,88.033 62.961,87.212 63.685 C 86.392 64.408,84.658 65.917,83.358 67.037 C 77.527 72.064,70.832 78.746,66.657 83.704 C 65.542 85.028,64.424 86.329,64.172 86.595 C 63.921 86.861,62.927 88.111,61.963 89.373 C 60.999 90.634,60.029 91.833,59.807 92.037 C 58.997 92.778,56.333 96.531,52.049 102.963 C 45.037 113.492,38.316 126.789,33.891 138.889 C 33.332 140.417,32.740 142.000,32.576 142.407 C 32.253 143.204,30.923 147.473,29.690 151.667 C 28.512 155.672,26.345 164.837,25.955 167.458 C 25.762 168.754,25.334 171.315,25.003 173.148 C 22.317 188.029,22.333 209.437,25.043 227.222 C 27.081 240.598,31.696 257.569,35.721 266.481 C 35.997 267.093,36.823 269.054,37.556 270.839 C 41.953 281.540,55.257 304.162,59.280 307.778 C 59.393 307.880,60.111 308.796,60.875 309.815 C 68.527 320.015,80.397 331.771,92.208 340.849 C 93.744 342.030,95.304 343.247,95.675 343.554 C 102.759 349.419,122.468 360.328,134.074 364.810 C 136.824 365.872,139.407 366.881,139.815 367.053 C 140.610 367.388,147.036 369.520,150.352 370.548 C 153.269 371.453,160.814 373.300,164.259 373.953 C 165.889 374.261,168.056 374.673,169.074 374.868 C 182.633 377.462,201.617 378.273,216.667 376.900 C 223.932 376.237,227.233 375.761,233.704 374.439 C 234.620 374.252,236.037 373.994,236.852 373.866 C 239.019 373.526,248.234 371.183,251.667 370.098 C 255.338 368.938,264.738 365.665,265.741 365.199 C 266.148 365.009,267.762 364.334,269.327 363.699 C 272.727 362.319,283.654 356.953,287.037 355.002 C 288.361 354.238,289.975 353.309,290.624 352.938 C 295.687 350.038,309.839 340.247,311.481 338.508 C 311.583 338.400,313.250 336.993,315.185 335.382 C 319.720 331.607,331.607 319.720,335.382 315.185 C 336.993 313.250,338.408 311.583,338.525 311.481 C 338.643 311.380,339.140 310.713,339.630 310.000 C 340.119 309.287,340.630 308.620,340.764 308.519 C 341.924 307.638,352.963 291.238,352.963 290.394 C 352.963 290.211,353.091 290.006,353.248 289.938 C 353.948 289.634,364.444 268.651,364.444 267.554 C 364.444 267.433,364.678 266.809,364.964 266.167 C 369.308 256.412,374.372 237.115,376.058 223.889 C 379.136 199.747,377.001 170.623,370.710 150.926 C 368.039 142.563,366.111 136.971,365.219 135.000 C 365.035 134.593,364.610 133.509,364.274 132.593 C 362.662 128.182,356.472 115.819,352.906 109.888 C 350.081 105.188,344.801 97.264,344.385 97.099 C 344.214 97.031,344.074 96.739,344.074 96.451 C 344.074 96.162,343.919 95.926,343.729 95.926 C 343.539 95.926,343.291 95.634,343.177 95.278 C 343.064 94.921,342.593 94.213,342.130 93.704 C 341.667 93.194,340.712 92.028,340.007 91.111 C 333.465 82.607,322.883 71.559,315.034 65.040 C 307.610 58.873,296.321 50.810,290.556 47.558 C 290.148 47.328,288.731 46.514,287.407 45.750 C 284.577 44.116,274.409 39.046,271.481 37.810 C 264.757 34.970,261.961 33.874,257.624 32.379 C 254.958 31.460,252.194 30.563,251.481 30.386 C 250.769 30.208,248.935 29.701,247.407 29.258 C 245.880 28.815,243.546 28.212,242.222 27.917 C 240.898 27.623,238.731 27.131,237.407 26.825 C 236.083 26.518,234.083 26.118,232.963 25.936 C 231.843 25.754,229.509 25.353,227.778 25.046 C 219.561 23.588,198.204 22.542,189.815 23.187 M133.211 104.361 C 133.449 104.513,136.599 110.885,140.210 118.522 C 143.821 126.159,146.876 132.523,146.999 132.665 C 147.122 132.807,148.008 131.224,148.969 129.147 C 158.211 109.161,160.828 104.074,161.871 104.074 C 163.717 104.074,163.704 103.938,163.704 123.175 C 163.704 142.237,163.671 142.593,161.923 142.593 C 160.211 142.593,160.185 142.372,160.185 127.622 C 160.185 114.005,160.095 112.647,159.324 114.722 C 158.887 115.899,153.986 126.438,150.530 133.636 C 148.299 138.280,148.103 138.562,147.173 138.451 C 145.934 138.303,146.952 140.204,138.303 121.881 C 137.301 119.758,135.952 116.925,135.305 115.585 L 134.128 113.148 134.095 127.222 C 134.077 134.963,133.940 141.475,133.791 141.694 C 133.295 142.417,132.318 142.544,131.524 141.988 C 130.580 141.327,130.256 105.448,131.185 104.519 C 131.686 104.018,132.564 103.949,133.211 104.361 M186.485 116.529 C 199.932 123.095,195.180 142.311,180.112 142.298 C 168.550 142.287,162.566 128.324,170.456 119.765 C 174.622 115.245,181.155 113.926,186.485 116.529 M201.997 115.771 C 202.121 116.093,202.222 116.982,202.222 117.746 C 202.222 119.647,202.487 119.768,203.838 118.489 C 207.342 115.173,214.444 113.968,214.444 116.691 C 214.444 117.558,213.073 118.519,211.835 118.519 C 205.359 118.519,202.842 122.587,202.593 133.456 C 202.422 140.914,202.352 141.583,201.688 142.067 C 200.744 142.757,200.511 142.733,199.630 141.852 C 198.726 140.948,198.450 116.513,199.333 115.630 C 199.977 114.986,201.732 115.079,201.997 115.771 M234.139 116.362 C 237.075 117.730,239.404 120.008,240.833 122.908 L 242.037 125.351 242.150 133.446 C 242.269 142.004,242.168 142.593,240.584 142.593 C 239.347 142.593,238.889 141.871,238.889 139.926 C 238.889 138.368,238.444 137.555,238.086 138.461 C 238.019 138.634,237.130 139.368,236.111 140.093 C 227.486 146.233,215.579 140.460,214.895 129.806 C 214.234 119.509,224.901 112.057,234.139 116.362 M225.908 119.004 C 216.404 121.674,215.356 133.867,224.238 138.429 C 231.482 142.150,240.413 134.965,238.501 126.954 C 237.122 121.176,231.287 117.492,225.908 119.004 M177.405 119.213 C 166.125 122.912,168.697 139.268,180.556 139.248 C 193.707 139.225,194.066 119.617,180.926 119.025 C 179.500 118.961,177.916 119.046,177.405 119.213 M100.395 183.717 C 101.396 184.253,101.530 223.265,100.533 224.092 C 99.243 225.163,97.984 224.108,97.778 221.783 L 97.593 219.691 96.328 220.943 C 90.061 227.147,78.966 224.968,74.925 216.740 C 68.537 203.732,85.506 190.852,96.248 200.556 L 97.778 201.938 97.778 193.024 C 97.778 184.926,97.837 184.076,98.426 183.733 C 99.255 183.251,99.519 183.248,100.395 183.717 M35.340 186.521 C 36.109 186.816,36.246 223.235,35.481 224.000 C 34.866 224.616,34.070 224.555,33.270 223.831 C 32.632 223.254,32.593 222.194,32.593 205.474 C 32.593 185.491,32.596 185.468,35.340 186.521 M254.454 187.246 C 254.652 187.769,254.815 190.186,254.815 192.617 L 254.815 197.037 259.061 197.037 C 263.836 197.037,264.736 197.515,263.679 199.491 C 263.224 200.341,263.061 200.370,258.802 200.370 L 254.395 200.370 254.512 208.981 C 254.644 218.621,254.821 219.391,257.169 220.506 C 259.019 221.383,260.778 221.267,262.411 220.159 C 265.228 218.247,267.081 220.682,264.352 222.708 C 260.167 225.814,253.980 224.142,251.980 219.364 C 251.295 217.727,251.245 187.422,251.926 186.741 C 252.721 185.946,254.061 186.214,254.454 187.246 M326.090 189.712 C 327.825 192.189,324.906 195.015,322.500 193.188 C 321.741 192.612,321.605 190.025,322.296 189.333 C 323.079 188.551,325.442 188.787,326.090 189.712 M175.326 198.327 C 180.398 201.301,181.245 203.505,181.416 214.178 C 181.565 223.403,181.336 224.636,179.523 224.375 C 178.006 224.156,177.789 222.921,177.780 214.444 L 177.771 206.481 176.665 204.554 C 173.933 199.789,167.640 198.982,163.742 202.896 C 161.306 205.343,161.111 206.289,161.111 215.646 C 161.111 224.467,160.993 224.936,158.959 224.222 L 157.963 223.872 157.778 215.177 C 157.571 205.470,157.408 204.757,154.893 202.549 C 151.064 199.186,145.288 199.863,142.410 204.012 L 141.296 205.617 141.111 214.419 C 140.920 223.498,140.753 224.444,139.336 224.444 C 137.454 224.444,137.407 224.113,137.407 210.844 C 137.407 197.541,137.474 197.037,139.236 197.037 C 140.243 197.037,141.455 198.792,140.859 199.388 C 139.935 200.312,141.462 200.098,142.737 199.125 C 147.136 195.767,153.828 196.439,157.922 200.651 L 159.592 202.370 161.045 200.718 C 164.460 196.839,170.937 195.754,175.326 198.327 M44.603 197.619 C 44.970 197.986,45.185 198.856,45.185 199.978 L 45.185 201.754 46.574 200.444 C 52.981 194.400,63.923 196.731,67.985 205.005 C 69.074 207.222,69.074 207.224,69.185 215.185 C 69.310 224.192,69.144 224.937,67.166 224.243 L 66.111 223.873 65.908 216.103 C 65.688 207.683,65.502 206.815,63.318 204.055 C 59.789 199.596,52.286 199.253,48.177 203.362 C 45.578 205.961,45.383 206.759,45.250 215.370 C 45.150 221.907,45.035 223.254,44.530 223.813 C 43.730 224.698,42.537 224.476,41.951 223.333 C 41.246 221.958,41.450 198.521,42.175 197.649 C 42.816 196.878,43.849 196.865,44.603 197.619 M108.172 197.420 C 108.843 197.779,108.889 198.264,108.889 204.946 C 108.889 213.930,109.213 215.276,112.045 218.038 C 116.410 222.293,123.038 222.048,127.056 217.483 C 129.342 214.887,129.630 213.504,129.630 205.132 C 129.630 196.939,129.884 196.148,132.062 197.575 L 132.963 198.165 132.963 210.588 C 132.963 223.938,132.896 224.444,131.138 224.444 C 129.906 224.444,129.630 223.930,129.630 221.636 C 129.630 219.751,129.416 219.652,128.175 220.960 C 124.435 224.901,116.963 225.548,111.829 222.375 C 106.845 219.296,105.547 215.812,105.552 205.537 C 105.556 196.884,105.794 196.147,108.172 197.420 M204.074 198.097 C 208.597 199.823,212.169 204.544,212.505 209.240 C 212.754 212.714,213.117 212.620,199.690 212.581 C 187.563 212.547,188.102 212.414,189.279 215.150 C 191.935 221.324,199.228 223.179,205.191 219.197 C 208.375 217.071,210.542 218.681,207.870 221.187 C 202.914 225.837,193.950 225.420,189.000 220.309 C 178.896 209.877,190.424 192.889,204.074 198.097 M222.220 197.398 C 222.592 197.634,222.770 198.356,222.766 199.615 C 222.757 201.820,222.695 201.793,224.379 200.315 C 231.792 193.806,244.020 197.621,246.472 207.207 C 247.944 212.959,247.102 224.444,245.210 224.444 C 243.919 224.444,243.763 223.618,243.640 216.108 C 243.450 204.538,240.752 200.543,233.148 200.576 C 225.472 200.609,222.963 204.278,222.963 215.469 C 222.963 223.280,222.721 224.444,221.099 224.444 C 219.331 224.444,219.223 223.572,219.338 210.214 C 219.456 196.445,219.612 195.749,222.220 197.398 M286.000 197.453 C 291.072 198.530,295.214 202.416,296.484 207.290 C 297.045 209.447,297.306 222.573,296.812 223.859 C 296.067 225.801,293.219 224.056,293.345 221.735 C 293.445 219.870,293.400 219.846,292.130 221.100 C 287.212 225.955,278.596 225.722,273.537 220.598 C 264.008 210.946,272.784 194.649,286.000 197.453 M304.370 197.481 C 304.615 197.726,304.815 198.843,304.815 199.964 L 304.815 202.002 306.204 200.650 C 308.939 197.987,314.999 196.163,316.412 197.576 C 317.810 198.974,317.010 199.916,313.864 200.574 C 306.687 202.076,304.815 205.470,304.815 216.981 C 304.815 223.754,304.673 224.444,303.286 224.444 C 301.527 224.444,301.481 224.097,301.481 210.741 C 301.481 199.835,301.557 198.125,302.063 197.619 C 302.757 196.926,303.755 196.866,304.370 197.481 M325.111 197.481 C 325.440 197.810,325.556 201.267,325.556 210.741 C 325.556 224.030,325.509 224.444,324.021 224.444 C 322.338 224.444,322.222 223.554,322.222 210.595 C 322.222 199.759,322.291 198.316,322.835 197.714 C 323.541 196.935,324.469 196.840,325.111 197.481 M347.407 197.430 C 352.594 198.596,356.700 202.434,357.968 207.300 C 358.677 210.025,358.762 223.312,358.074 224.000 C 356.732 225.342,354.691 224.034,354.829 221.921 C 354.957 219.942,354.823 219.898,353.211 221.384 C 347.515 226.634,337.817 225.236,333.256 218.508 C 326.558 208.628,335.825 194.826,347.407 197.430 M84.072 201.087 C 72.978 204.461,75.604 221.263,87.222 221.246 C 95.144 221.235,99.949 212.864,96.046 205.873 C 93.824 201.894,88.463 199.751,84.072 201.087 M194.259 201.681 C 191.195 203.283,189.438 205.374,188.749 208.241 L 188.504 209.259 198.697 209.259 C 210.111 209.259,209.542 209.423,208.108 206.559 C 205.545 201.439,199.080 199.162,194.259 201.681 M278.688 201.777 C 268.894 206.513,272.286 221.345,283.148 221.281 C 292.422 221.227,296.824 210.089,290.138 203.594 C 287.070 200.614,282.569 199.900,278.688 201.777 M340.926 201.400 C 334.432 203.550,332.238 212.723,336.988 217.872 C 340.165 221.317,344.900 222.369,348.747 220.486 C 360.669 214.648,353.530 197.226,340.926 201.400 " stroke="none" fill="#eb048b" fill-rule="evenodd"></path><path id="path1" d="M197.685 12.127 C 199.162 12.197,201.579 12.197,203.056 12.127 C 204.532 12.057,203.324 11.999,200.370 11.999 C 197.417 11.999,196.208 12.057,197.685 12.127 M183.704 12.593 L 181.667 12.842 183.519 12.866 C 184.537 12.879,186.287 12.763,187.407 12.608 L 189.444 12.327 187.593 12.335 C 186.574 12.339,184.824 12.455,183.704 12.593 M214.074 12.621 C 216.009 12.813,218.718 13.103,220.093 13.266 C 221.468 13.428,222.593 13.449,222.593 13.313 C 222.593 13.020,219.408 12.689,214.259 12.446 L 210.556 12.271 214.074 12.621 M178.796 13.224 C 179.255 13.313,180.005 13.313,180.463 13.224 C 180.921 13.136,180.546 13.064,179.630 13.064 C 178.713 13.064,178.338 13.136,178.796 13.224 M174.259 13.585 C 173.648 13.662,171.648 13.987,169.815 14.308 C 167.981 14.628,165.571 15.048,164.458 15.240 C 163.345 15.433,162.345 15.682,162.236 15.793 C 161.992 16.041,165.322 15.609,166.852 15.195 C 167.463 15.029,169.380 14.695,171.111 14.452 C 176.837 13.650,178.095 13.419,176.667 13.432 C 175.954 13.439,174.870 13.508,174.259 13.585 M224.630 13.660 C 225.444 13.828,227.611 14.174,229.444 14.429 C 231.278 14.685,233.278 15.031,233.889 15.199 C 235.702 15.697,238.456 15.980,237.593 15.580 C 237.185 15.392,236.447 15.226,235.952 15.211 C 235.457 15.197,234.541 15.030,233.915 14.841 C 232.669 14.464,228.383 13.824,225.185 13.538 C 223.442 13.381,223.362 13.399,224.630 13.660 M159.444 16.296 C 158.446 16.550,158.428 16.580,159.259 16.586 C 159.769 16.590,160.602 16.459,161.111 16.296 C 162.356 15.898,161.011 15.898,159.444 16.296 M239.630 16.246 C 241.012 16.702,243.676 17.092,242.778 16.708 C 242.370 16.533,241.287 16.290,240.370 16.166 C 239.274 16.018,239.020 16.046,239.630 16.246 M156.296 17.037 C 155.552 17.275,155.516 17.336,156.111 17.344 C 156.519 17.350,157.185 17.212,157.593 17.037 C 158.536 16.631,157.563 16.631,156.296 17.037 M243.889 17.234 C 244.093 17.311,246.259 17.893,248.704 18.528 C 251.148 19.163,256.130 20.675,259.775 21.887 C 263.420 23.100,266.465 24.029,266.541 23.952 C 266.813 23.681,252.942 19.113,248.889 18.139 C 248.176 17.967,246.926 17.653,246.111 17.441 C 244.728 17.080,243.066 16.926,243.889 17.234 M152.407 17.946 C 151.389 18.187,150.306 18.483,150.000 18.605 C 149.694 18.727,148.966 18.932,148.382 19.061 C 147.798 19.190,147.414 19.389,147.528 19.503 C 147.643 19.618,148.621 19.449,149.701 19.128 C 150.782 18.808,152.500 18.307,153.519 18.015 C 155.740 17.379,155.007 17.333,152.407 17.946 M144.074 20.276 C 143.157 20.600,142.580 20.922,142.791 20.992 C 143.002 21.062,144.085 20.797,145.198 20.402 C 146.312 20.007,146.889 19.685,146.481 19.686 C 146.074 19.687,144.991 19.953,144.074 20.276 M193.148 20.218 C 175.488 20.928,157.412 24.411,139.716 30.514 C 135.145 32.090,124.904 36.451,119.856 38.971 C 109.164 44.308,91.697 55.659,86.080 60.920 C 85.859 61.127,84.616 62.213,83.317 63.333 C 77.820 68.077,76.627 69.187,72.222 73.656 C 67.781 78.163,63.739 82.606,61.226 85.746 C 55.649 92.715,51.692 98.181,48.094 103.889 C 36.417 122.413,26.983 145.786,23.728 164.259 C 23.512 165.481,23.178 167.231,22.985 168.148 C 22.537 170.274,21.299 179.607,20.699 185.370 C 20.121 190.937,20.121 209.891,20.700 215.370 C 21.556 223.472,22.583 230.416,24.041 237.963 C 25.289 244.424,29.981 260.132,32.228 265.370 C 32.578 266.185,33.748 268.935,34.829 271.481 C 40.284 284.331,48.298 298.187,56.043 308.158 C 56.284 308.468,57.558 310.135,58.873 311.861 C 63.602 318.069,75.500 330.629,81.493 335.741 C 82.210 336.352,83.875 337.772,85.194 338.897 C 86.513 340.021,88.593 341.687,89.815 342.599 C 91.037 343.511,92.120 344.342,92.222 344.446 C 92.523 344.752,95.308 346.820,95.959 347.222 C 96.290 347.426,98.959 349.192,101.891 351.146 C 111.743 357.712,122.806 363.434,134.730 368.131 C 136.822 368.955,138.780 369.630,139.082 369.630 C 139.383 369.630,139.630 369.796,139.630 370.000 C 139.630 370.204,139.879 370.370,140.185 370.370 C 140.490 370.370,142.513 370.958,144.681 371.675 C 146.848 372.393,149.890 373.321,151.441 373.737 C 152.991 374.154,155.176 374.744,156.296 375.049 C 157.417 375.354,159.083 375.760,160.000 375.952 C 175.000 379.083,182.642 379.964,197.222 380.244 C 211.667 380.521,220.275 379.813,234.630 377.165 C 237.820 376.577,244.444 375.078,246.852 374.401 C 251.309 373.146,257.757 371.156,258.704 370.742 C 259.111 370.564,260.528 370.053,261.852 369.605 C 266.782 367.939,279.394 362.566,280.926 361.479 C 281.130 361.335,282.546 360.573,284.074 359.787 C 299.414 351.890,314.831 340.485,327.790 327.447 C 344.884 310.249,359.865 287.633,367.439 267.593 C 370.753 258.823,371.622 256.321,372.841 252.037 C 373.537 249.593,374.350 246.759,374.648 245.741 C 375.455 242.985,376.507 238.108,377.805 231.111 C 380.038 219.073,381.043 198.716,379.980 187.059 C 379.400 180.696,378.544 173.371,378.160 171.481 C 377.974 170.565,377.556 168.315,377.231 166.481 C 375.105 154.491,370.379 139.304,364.956 127.037 C 360.686 117.376,350.696 100.050,346.146 94.410 C 345.719 93.881,344.870 92.801,344.259 92.009 C 333.196 77.667,322.771 67.195,309.259 56.848 C 307.528 55.522,305.920 54.282,305.686 54.091 C 304.759 53.336,296.290 47.772,293.148 45.854 C 287.190 42.216,279.140 38.082,271.296 34.632 C 260.993 30.100,245.566 25.384,234.444 23.367 C 233.120 23.127,231.204 22.779,230.185 22.594 C 220.687 20.866,203.870 19.787,193.148 20.218 M140.370 21.528 C 139.657 21.720,138.741 22.028,138.333 22.211 C 137.926 22.394,136.926 22.755,136.111 23.014 C 135.296 23.273,134.463 23.642,134.259 23.834 C 134.024 24.055,134.160 24.087,134.629 23.920 C 135.037 23.775,136.870 23.151,138.704 22.533 C 142.770 21.163,143.619 20.651,140.370 21.528 M219.074 23.886 C 222.130 24.216,226.046 24.739,227.778 25.046 C 229.509 25.353,231.843 25.754,232.963 25.936 C 234.083 26.118,236.083 26.518,237.407 26.825 C 238.731 27.131,240.898 27.623,242.222 27.917 C 243.546 28.212,245.880 28.815,247.407 29.258 C 248.935 29.701,250.769 30.208,251.481 30.386 C 252.194 30.563,254.958 31.460,257.624 32.379 C 261.961 33.874,264.757 34.970,271.481 37.810 C 274.409 39.046,284.577 44.116,287.407 45.750 C 288.731 46.514,290.148 47.328,290.556 47.558 C 296.321 50.810,307.610 58.873,315.034 65.040 C 322.883 71.559,333.465 82.607,340.007 91.111 C 340.712 92.028,341.667 93.194,342.130 93.704 C 342.593 94.213,343.064 94.921,343.177 95.278 C 343.291 95.634,343.539 95.926,343.729 95.926 C 343.919 95.926,344.074 96.162,344.074 96.451 C 344.074 96.739,344.214 97.031,344.385 97.099 C 344.801 97.264,350.081 105.188,352.906 109.888 C 356.472 115.819,362.662 128.182,364.274 132.593 C 364.610 133.509,365.035 134.593,365.219 135.000 C 366.111 136.971,368.039 142.563,370.710 150.926 C 377.001 170.623,379.136 199.747,376.058 223.889 C 374.372 237.115,369.308 256.412,364.964 266.167 C 364.678 266.809,364.444 267.433,364.444 267.554 C 364.444 268.651,353.948 289.634,353.248 289.938 C 353.091 290.006,352.963 290.211,352.963 290.394 C 352.963 290.726,351.717 292.776,348.654 297.488 C 346.880 300.218,341.154 308.223,340.764 308.519 C 340.630 308.620,340.119 309.287,339.630 310.000 C 339.140 310.713,338.643 311.380,338.525 311.481 C 338.408 311.583,336.993 313.250,335.382 315.185 C 331.607 319.720,319.720 331.607,315.185 335.382 C 313.250 336.993,311.583 338.400,311.481 338.508 C 309.839 340.247,295.687 350.038,290.624 352.938 C 289.975 353.309,288.361 354.238,287.037 355.002 C 283.654 356.953,272.727 362.319,269.327 363.699 C 267.762 364.334,266.148 365.009,265.741 365.199 C 264.738 365.665,255.338 368.938,251.667 370.098 C 248.234 371.183,239.019 373.526,236.852 373.866 C 236.037 373.994,234.620 374.252,233.704 374.439 C 227.233 375.761,223.932 376.237,216.667 376.900 C 201.617 378.273,182.633 377.462,169.074 374.868 C 168.056 374.673,165.889 374.261,164.259 373.953 C 160.814 373.300,153.269 371.453,150.352 370.548 C 147.036 369.520,140.610 367.388,139.815 367.053 C 139.407 366.881,136.824 365.872,134.074 364.810 C 122.468 360.328,102.759 349.419,95.675 343.554 C 95.304 343.247,93.744 342.030,92.208 340.849 C 80.397 331.771,68.527 320.015,60.875 309.815 C 60.111 308.796,59.393 307.880,59.280 307.778 C 55.257 304.162,41.953 281.540,37.556 270.839 C 36.823 269.054,35.997 267.093,35.721 266.481 C 32.812 260.039,28.633 246.001,26.294 234.815 C 25.762 232.272,24.192 221.755,23.722 217.593 C 22.404 205.915,23.034 184.056,25.003 173.148 C 25.334 171.315,25.762 168.754,25.955 167.458 C 26.345 164.837,28.512 155.672,29.690 151.667 C 30.923 147.473,32.253 143.204,32.576 142.407 C 32.740 142.000,33.332 140.417,33.891 138.889 C 38.316 126.789,45.037 113.492,52.049 102.963 C 56.333 96.531,58.997 92.778,59.807 92.037 C 60.029 91.833,60.999 90.634,61.963 89.373 C 62.927 88.111,63.921 86.861,64.172 86.595 C 64.424 86.329,65.542 85.028,66.657 83.704 C 70.832 78.746,77.527 72.064,83.358 67.037 C 84.658 65.917,86.392 64.408,87.212 63.685 C 88.033 62.961,89.454 61.799,90.370 61.102 C 91.287 60.404,92.120 59.738,92.222 59.621 C 92.324 59.504,92.991 59.008,93.704 58.519 C 94.417 58.029,95.083 57.520,95.185 57.388 C 95.436 57.064,105.237 50.460,107.778 48.904 C 114.739 44.640,124.206 39.833,131.852 36.679 C 134.398 35.629,136.815 34.625,137.222 34.448 C 149.325 29.197,170.427 24.679,189.815 23.187 C 194.215 22.849,213.819 23.317,219.074 23.886 M130.741 25.012 C 129.620 25.492,128.218 26.062,127.625 26.278 C 127.032 26.493,126.628 26.751,126.727 26.851 C 126.889 27.012,133.293 24.589,133.673 24.223 C 134.090 23.820,132.559 24.233,130.741 25.012 M268.333 24.803 C 271.576 26.297,275.309 27.778,275.458 27.628 C 275.661 27.425,273.894 26.610,270.194 25.200 C 266.890 23.941,266.096 23.772,268.333 24.803 M123.889 27.910 C 121.956 28.754,118.664 30.548,119.630 30.232 C 120.644 29.899,125.963 27.494,126.193 27.263 C 126.602 26.855,125.772 27.088,123.889 27.910 M277.907 28.931 C 279.099 29.546,280.149 29.974,280.241 29.882 C 280.444 29.680,276.683 27.770,276.131 27.796 C 275.916 27.805,276.716 28.316,277.907 28.931 M285.185 32.443 C 294.445 37.301,297.508 39.083,303.704 43.217 C 308.846 46.648,308.687 46.535,313.611 50.249 C 316.106 52.131,318.143 53.553,318.137 53.409 C 318.130 53.266,317.339 52.565,316.378 51.852 C 315.416 51.139,314.297 50.249,313.889 49.874 C 313.224 49.262,307.512 45.188,306.017 44.259 C 305.689 44.056,303.993 42.955,302.248 41.814 C 296.124 37.812,291.661 35.246,285.149 31.986 C 279.587 29.202,279.612 29.518,285.185 32.443 M116.111 31.606 C 114.889 32.261,112.222 33.691,110.185 34.782 C 108.148 35.873,106.039 37.077,105.498 37.457 C 104.958 37.837,104.404 38.148,104.269 38.148 C 104.133 38.148,103.296 38.648,102.407 39.259 C 101.519 39.870,100.693 40.370,100.572 40.370 C 100.368 40.370,91.570 46.269,89.248 47.963 C 84.989 51.070,77.653 57.058,73.889 60.500 C 64.355 69.219,56.095 78.338,48.787 88.212 C 45.306 92.915,39.741 101.262,38.707 103.333 C 38.350 104.046,37.854 104.880,37.603 105.185 C 37.352 105.491,36.429 107.074,35.552 108.704 C 31.449 116.330,30.313 118.585,30.487 118.759 C 30.590 118.862,31.430 117.451,32.354 115.622 C 35.799 108.801,42.353 97.727,45.714 93.046 C 56.146 78.519,69.081 64.457,80.118 55.645 C 81.581 54.477,82.861 53.416,82.963 53.287 C 83.454 52.665,92.495 46.115,97.037 43.090 C 102.579 39.399,109.514 35.407,116.204 32.056 C 118.646 30.833,119.368 30.333,118.611 30.392 C 118.458 30.404,117.333 30.950,116.111 31.606 M319.446 54.660 C 320.058 55.255,321.308 56.352,322.224 57.100 C 323.140 57.848,324.889 59.373,326.111 60.490 C 327.333 61.608,328.392 62.465,328.464 62.395 C 328.536 62.326,327.620 61.362,326.427 60.254 C 323.047 57.111,316.891 52.179,319.446 54.660 M328.889 62.759 C 328.889 62.944,330.514 64.694,332.500 66.647 C 336.498 70.579,339.008 73.250,342.601 77.398 C 343.921 78.921,345.213 80.397,345.474 80.677 C 347.180 82.510,353.599 91.265,356.845 96.185 C 360.943 102.397,362.440 104.468,361.073 102.037 C 359.998 100.124,353.676 90.682,352.022 88.519 C 351.321 87.602,350.458 86.435,350.104 85.926 C 349.751 85.417,349.370 84.917,349.258 84.815 C 349.146 84.713,348.478 83.880,347.774 82.963 C 347.069 82.046,346.323 81.110,346.116 80.882 C 345.910 80.654,344.992 79.570,344.076 78.474 C 340.284 73.934,328.889 62.142,328.889 62.759 M362.620 105.239 C 363.072 106.126,363.834 107.474,364.314 108.234 C 368.913 115.523,377.138 134.994,380.549 146.667 C 381.115 148.602,381.713 150.602,381.878 151.111 C 382.044 151.620,382.469 153.279,382.824 154.796 C 383.179 156.313,383.531 157.371,383.606 157.146 C 383.938 156.147,379.700 141.852,376.874 134.444 C 375.493 130.823,375.143 129.942,373.912 126.981 C 371.773 121.839,364.785 107.646,364.092 107.037 C 363.977 106.935,363.550 106.213,363.145 105.432 C 362.739 104.652,362.270 103.926,362.102 103.820 C 361.935 103.713,362.167 104.352,362.620 105.239 M131.185 104.519 C 130.256 105.448,130.580 141.327,131.524 141.988 C 132.318 142.544,133.295 142.417,133.791 141.694 C 133.940 141.475,134.077 134.963,134.095 127.222 L 134.128 113.148 135.305 115.585 C 135.952 116.925,137.301 119.758,138.303 121.881 C 146.952 140.204,145.934 138.303,147.173 138.451 C 148.103 138.562,148.299 138.280,150.530 133.636 C 153.986 126.438,158.887 115.899,159.324 114.722 C 160.095 112.647,160.185 114.005,160.185 127.622 C 160.185 142.372,160.211 142.593,161.923 142.593 C 163.671 142.593,163.704 142.237,163.704 123.175 C 163.704 103.938,163.717 104.074,161.871 104.074 C 160.828 104.074,158.211 109.161,148.969 129.147 C 148.008 131.224,147.122 132.807,146.999 132.665 C 146.876 132.523,143.821 126.159,140.210 118.522 C 136.599 110.885,133.449 104.513,133.211 104.361 C 132.564 103.949,131.686 104.018,131.185 104.519 M176.379 115.891 C 166.539 119.555,163.754 131.295,170.974 138.668 C 177.384 145.213,189.263 142.910,193.176 134.364 C 197.991 123.845,187.121 111.890,176.379 115.891 M199.333 115.630 C 198.450 116.513,198.726 140.948,199.630 141.852 C 200.511 142.733,200.744 142.757,201.688 142.067 C 202.352 141.583,202.422 140.914,202.593 133.456 C 202.842 122.587,205.359 118.519,211.835 118.519 C 213.073 118.519,214.444 117.558,214.444 116.691 C 214.444 113.968,207.342 115.173,203.838 118.489 C 202.487 119.768,202.222 119.647,202.222 117.746 C 202.222 115.320,200.733 114.230,199.333 115.630 M223.889 115.924 C 210.140 121.390,212.879 141.636,227.487 142.514 C 231.385 142.749,237.286 140.492,238.086 138.461 C 238.444 137.555,238.889 138.368,238.889 139.926 C 238.889 141.871,239.347 142.593,240.584 142.593 C 242.168 142.593,242.269 142.004,242.150 133.446 L 242.037 125.351 240.833 122.908 C 237.771 116.692,230.007 113.492,223.889 115.924 M232.534 119.647 C 239.115 122.557,240.793 131.040,235.814 136.237 C 229.599 142.725,218.770 138.619,218.218 129.566 C 217.746 121.823,225.424 116.503,232.534 119.647 M185.000 119.909 C 194.582 124.867,191.281 139.229,180.556 139.248 C 168.697 139.268,166.125 122.912,177.405 119.213 C 179.040 118.677,183.389 119.075,185.000 119.909 M28.889 121.852 C 28.203 123.270,27.728 124.518,27.834 124.624 C 27.940 124.730,28.566 123.633,29.224 122.187 C 30.780 118.768,30.511 118.499,28.889 121.852 M26.901 126.359 C 25.912 128.503,24.039 133.422,24.165 133.548 C 24.231 133.614,25.065 131.809,26.019 129.537 C 27.604 125.758,28.246 123.445,26.901 126.359 M22.687 137.110 C 21.507 140.405,20.999 142.222,21.257 142.222 C 21.345 142.222,21.770 141.097,22.201 139.722 C 22.633 138.347,23.256 136.596,23.588 135.830 C 23.919 135.064,24.100 134.346,23.989 134.236 C 23.878 134.125,23.293 135.419,22.687 137.110 M20.198 144.642 C 19.861 145.799,19.664 146.824,19.759 146.919 C 19.854 147.014,20.207 146.145,20.543 144.988 C 20.880 143.830,21.077 142.806,20.982 142.711 C 20.887 142.615,20.534 143.485,20.198 144.642 M19.090 148.333 C 18.946 148.944,18.682 149.861,18.503 150.370 C 18.325 150.880,18.087 151.963,17.975 152.778 C 17.863 153.593,18.187 152.843,18.695 151.111 C 19.202 149.380,19.557 147.796,19.484 147.593 C 19.411 147.389,19.233 147.722,19.090 148.333 M17.268 155.014 C 17.141 155.345,17.052 155.978,17.070 156.419 C 17.094 156.988,17.208 156.860,17.462 155.978 C 17.831 154.696,17.679 153.943,17.268 155.014 M16.296 159.444 C 16.057 160.597,15.935 161.614,16.026 161.705 C 16.116 161.795,16.381 160.921,16.614 159.762 C 16.847 158.603,16.968 157.586,16.884 157.501 C 16.800 157.417,16.536 158.292,16.296 159.444 M383.872 159.259 C 384.012 160.176,384.268 161.426,384.443 162.037 C 384.769 163.182,386.367 172.635,387.009 177.222 L 387.372 179.815 387.185 176.852 C 386.978 173.554,386.245 169.092,384.418 160.000 C 383.916 157.501,383.524 156.969,383.872 159.259 M15.214 164.883 C 15.198 165.430,15.039 166.264,14.861 166.735 C 14.682 167.207,14.441 168.676,14.325 170.000 C 14.121 172.333,14.126 172.350,14.475 170.556 C 14.674 169.537,15.019 167.851,15.243 166.809 C 15.467 165.766,15.559 164.683,15.447 164.401 C 15.335 164.119,15.231 164.336,15.214 164.883 M13.230 177.614 C 12.552 182.932,12.068 190.983,12.597 188.148 C 12.768 187.231,12.920 185.475,12.936 184.244 C 12.951 183.014,13.224 180.130,13.543 177.836 C 13.862 175.542,14.059 173.475,13.982 173.242 C 13.905 173.010,13.566 174.977,13.230 177.614 M387.658 183.519 C 387.760 185.556,387.983 188.972,388.153 191.111 C 388.410 194.341,388.428 193.996,388.262 189.080 C 388.152 185.825,387.929 182.408,387.767 181.488 C 387.572 180.387,387.535 181.082,387.658 183.519 M98.426 183.733 C 97.837 184.076,97.778 184.926,97.778 193.024 L 97.778 201.938 96.248 200.556 C 85.506 190.852,68.537 203.732,74.925 216.740 C 78.966 224.968,90.061 227.147,96.328 220.943 L 97.593 219.691 97.778 221.783 C 97.984 224.108,99.243 225.163,100.533 224.092 C 101.530 223.265,101.396 184.253,100.395 183.717 C 99.519 183.248,99.255 183.251,98.426 183.733 M32.976 187.013 C 32.198 188.466,32.475 223.112,33.270 223.831 C 34.070 224.555,34.866 224.616,35.481 224.000 C 36.246 223.235,36.109 186.816,35.340 186.521 C 34.257 186.105,33.362 186.291,32.976 187.013 M251.926 186.741 C 251.245 187.422,251.295 217.727,251.980 219.364 C 253.980 224.142,260.167 225.814,264.352 222.708 C 267.081 220.682,265.228 218.247,262.411 220.159 C 260.778 221.267,259.019 221.383,257.169 220.506 C 254.821 219.391,254.644 218.621,254.512 208.981 L 254.395 200.370 258.802 200.370 C 263.061 200.370,263.224 200.341,263.679 199.491 C 264.736 197.515,263.836 197.037,259.061 197.037 L 254.815 197.037 254.815 192.617 C 254.815 186.785,253.848 184.818,251.926 186.741 M322.296 189.333 C 321.605 190.025,321.741 192.612,322.500 193.188 C 324.173 194.458,326.667 193.325,326.667 191.296 C 326.667 189.312,323.665 187.964,322.296 189.333 M12.003 200.926 C 12.003 204.389,12.059 205.855,12.127 204.185 C 12.196 202.514,12.196 199.681,12.128 197.889 C 12.060 196.096,12.004 197.463,12.003 200.926 M167.963 197.042 C 165.457 197.313,162.800 198.725,161.045 200.718 L 159.592 202.370 157.922 200.651 C 153.828 196.439,147.136 195.767,142.737 199.125 C 141.462 200.098,139.935 200.312,140.859 199.388 C 141.455 198.792,140.243 197.037,139.236 197.037 C 137.474 197.037,137.407 197.541,137.407 210.844 C 137.407 224.113,137.454 224.444,139.336 224.444 C 140.753 224.444,140.920 223.498,141.111 214.419 L 141.296 205.617 142.410 204.012 C 145.288 199.863,151.064 199.186,154.893 202.549 C 157.408 204.757,157.571 205.470,157.778 215.177 L 157.963 223.872 158.959 224.222 C 160.993 224.936,161.111 224.467,161.111 215.646 C 161.111 206.289,161.306 205.343,163.742 202.896 C 167.640 198.982,173.933 199.789,176.665 204.554 L 177.771 206.481 177.780 214.444 C 177.789 222.921,178.006 224.156,179.523 224.375 C 181.336 224.636,181.565 223.403,181.416 214.178 C 181.290 206.347,181.220 205.608,180.437 203.889 C 178.253 199.095,173.436 196.451,167.963 197.042 M42.175 197.649 C 41.450 198.521,41.246 221.958,41.951 223.333 C 42.537 224.476,43.730 224.698,44.530 223.813 C 45.035 223.254,45.150 221.907,45.250 215.370 C 45.383 206.759,45.578 205.961,48.177 203.362 C 52.286 199.253,59.789 199.596,63.318 204.055 C 65.502 206.815,65.688 207.683,65.908 216.103 L 66.111 223.873 67.166 224.243 C 69.144 224.937,69.310 224.192,69.185 215.185 C 69.074 207.224,69.074 207.222,67.985 205.005 C 63.923 196.731,52.981 194.400,46.574 200.444 L 45.185 201.754 45.185 199.978 C 45.185 197.398,43.480 196.078,42.175 197.649 M106.000 197.481 C 105.098 198.383,105.402 212.733,106.382 215.522 C 109.500 224.399,121.962 227.508,128.175 220.960 C 129.416 219.652,129.630 219.751,129.630 221.636 C 129.630 223.930,129.906 224.444,131.138 224.444 C 132.896 224.444,132.963 223.938,132.963 210.588 L 132.963 198.165 132.062 197.575 C 129.884 196.148,129.630 196.939,129.630 205.132 C 129.630 213.504,129.342 214.887,127.056 217.483 C 123.038 222.048,116.410 222.293,112.045 218.038 C 109.213 215.276,108.889 213.930,108.889 204.946 C 108.889 198.264,108.843 197.779,108.172 197.420 C 107.231 196.917,106.546 196.936,106.000 197.481 M195.286 197.585 C 185.424 200.354,181.925 213.005,189.000 220.309 C 193.950 225.420,202.914 225.837,207.870 221.187 C 210.542 218.681,208.375 217.071,205.191 219.197 C 199.228 223.179,191.935 221.324,189.279 215.150 C 188.102 212.414,187.563 212.547,199.690 212.581 C 213.117 212.620,212.754 212.714,212.505 209.240 C 211.932 201.225,203.250 195.349,195.286 197.585 M220.000 197.399 C 219.141 197.942,218.964 222.271,219.809 223.562 C 220.534 224.669,221.635 224.694,222.386 223.621 C 222.861 222.944,222.963 221.503,222.963 215.469 C 222.963 204.278,225.472 200.609,233.148 200.576 C 240.752 200.543,243.450 204.538,243.640 216.108 C 243.763 223.618,243.919 224.444,245.210 224.444 C 247.102 224.444,247.944 212.959,246.472 207.207 C 244.020 197.621,231.792 193.806,224.379 200.315 C 222.695 201.793,222.757 201.820,222.766 199.615 C 222.774 197.286,221.631 196.369,220.000 197.399 M280.521 197.419 C 269.857 199.533,265.854 212.816,273.537 220.598 C 278.596 225.722,287.212 225.955,292.130 221.100 C 293.400 219.846,293.445 219.870,293.345 221.735 C 293.219 224.056,296.067 225.801,296.812 223.859 C 297.306 222.573,297.045 209.447,296.484 207.290 C 294.691 200.409,287.590 196.017,280.521 197.419 M302.063 197.619 C 301.557 198.125,301.481 199.835,301.481 210.741 C 301.481 224.097,301.527 224.444,303.286 224.444 C 304.673 224.444,304.815 223.754,304.815 216.981 C 304.815 205.470,306.687 202.076,313.864 200.574 C 317.010 199.916,317.810 198.974,316.412 197.576 C 314.999 196.163,308.939 197.987,306.204 200.650 L 304.815 202.002 304.815 199.964 C 304.815 197.215,303.548 196.135,302.063 197.619 M322.835 197.714 C 322.291 198.316,322.222 199.759,322.222 210.595 C 322.222 223.554,322.338 224.444,324.021 224.444 C 325.509 224.444,325.556 224.030,325.556 210.741 C 325.556 201.267,325.440 197.810,325.111 197.481 C 324.469 196.840,323.541 196.935,322.835 197.714 M341.481 197.546 C 330.300 200.624,327.290 215.008,336.393 221.862 C 341.387 225.622,348.843 225.410,353.211 221.384 C 354.823 219.898,354.957 219.942,354.829 221.921 C 354.691 224.034,356.732 225.342,358.074 224.000 C 358.762 223.312,358.677 210.025,357.968 207.300 C 356.133 200.255,348.355 195.654,341.481 197.546 M90.066 201.123 C 95.625 202.667,99.026 209.641,96.742 214.815 C 92.118 225.293,76.991 222.314,76.991 210.926 C 76.991 203.926,83.253 199.231,90.066 201.123 M203.519 201.755 C 205.363 202.717,207.089 204.524,208.108 206.559 C 209.542 209.423,210.111 209.259,198.697 209.259 L 188.504 209.259 188.749 208.241 C 190.205 202.185,197.879 198.816,203.519 201.755 M287.425 201.612 C 297.254 206.277,294.006 221.217,283.148 221.281 C 272.286 221.345,268.894 206.513,278.688 201.777 C 281.267 200.529,284.996 200.459,287.425 201.612 M349.205 201.883 C 356.951 205.754,356.684 216.599,348.747 220.486 C 342.319 223.633,334.444 218.504,334.444 211.170 C 334.444 203.233,342.175 198.370,349.205 201.883 M388.012 210.648 C 387.878 213.245,387.694 216.537,387.603 217.963 C 387.465 220.123,387.489 220.277,387.748 218.889 C 388.107 216.959,388.687 205.926,388.429 205.926 C 388.334 205.926,388.146 208.051,388.012 210.648 M12.466 214.259 C 12.656 218.283,13.677 227.479,13.967 227.778 C 14.194 228.012,13.763 223.429,13.307 220.765 C 13.118 219.658,12.948 217.742,12.931 216.506 C 12.913 215.270,12.762 213.426,12.595 212.407 C 12.377 211.071,12.341 211.587,12.466 214.259 M386.918 223.519 C 386.761 224.944,386.486 226.944,386.305 227.963 C 385.732 231.186,385.478 233.527,385.728 233.281 C 386.070 232.944,387.459 222.966,387.319 221.852 C 387.254 221.343,387.074 222.093,386.918 223.519 M14.288 230.000 C 14.629 233.625,17.320 246.507,17.665 246.162 C 17.749 246.078,17.488 244.615,17.083 242.912 C 16.679 241.209,16.005 237.981,15.584 235.741 C 15.163 233.500,14.657 230.833,14.458 229.815 L 14.097 227.963 14.288 230.000 M385.017 235.387 C 384.875 236.332,384.843 237.188,384.944 237.290 C 385.046 237.392,385.246 236.702,385.387 235.758 C 385.529 234.813,385.561 233.957,385.460 233.855 C 385.358 233.753,385.159 234.442,385.017 235.387 M384.097 240.036 C 383.852 241.278,383.731 242.373,383.828 242.470 C 384.001 242.643,384.188 241.901,384.658 239.167 C 385.055 236.864,384.574 237.607,384.097 240.036 M383.148 244.444 C 383.008 245.085,382.970 245.686,383.064 245.780 C 383.158 245.874,383.342 245.419,383.472 244.769 C 383.781 243.225,383.482 242.926,383.148 244.444 M382.381 247.271 C 382.078 248.574,381.047 252.281,380.031 255.716 C 379.614 257.129,379.339 258.351,379.419 258.432 C 379.583 258.596,381.178 253.509,382.280 249.307 C 382.674 247.805,382.914 246.494,382.813 246.393 C 382.711 246.292,382.517 246.687,382.381 247.271 M17.778 247.068 C 17.778 248.527,23.619 266.875,23.971 266.523 C 24.038 266.456,23.100 263.420,21.886 259.775 C 20.673 256.130,19.322 251.731,18.883 250.000 C 18.095 246.888,17.778 246.047,17.778 247.068 M378.251 261.114 C 377.831 262.436,377.069 264.602,376.557 265.926 C 374.149 272.150,373.676 273.492,374.013 273.148 C 374.569 272.581,379.325 259.641,379.160 259.145 C 379.080 258.905,378.671 259.791,378.251 261.114 M24.305 267.778 C 24.854 269.892,29.957 281.278,30.232 281.003 C 30.335 280.899,30.016 280.006,29.521 279.018 C 29.026 278.030,27.919 275.556,27.061 273.519 C 25.129 268.933,23.988 266.556,24.305 267.778 M372.952 274.896 C 371.817 277.764,366.580 288.303,364.342 292.221 C 362.468 295.503,361.330 298.007,362.335 296.636 C 364.352 293.886,374.047 274.294,373.609 273.856 C 373.512 273.759,373.217 274.227,372.952 274.896 M31.053 283.241 C 32.096 285.483,34.264 289.631,35.749 292.222 C 36.508 293.546,37.553 295.380,38.071 296.296 C 39.431 298.702,43.675 305.232,46.254 308.889 C 48.539 312.128,49.206 313.014,50.656 314.740 C 51.119 315.290,51.869 316.281,52.323 316.942 C 52.777 317.603,53.272 318.144,53.424 318.146 C 53.576 318.147,52.076 315.994,50.091 313.360 C 43.791 305.003,38.719 297.171,35.204 290.370 C 34.310 288.639,33.280 286.722,32.916 286.111 C 32.553 285.500,31.924 284.292,31.519 283.426 C 31.114 282.560,30.698 281.852,30.594 281.852 C 30.491 281.852,30.697 282.477,31.053 283.241 M360.144 299.330 C 358.687 301.732,354.611 307.961,354.030 308.674 C 353.851 308.894,352.343 310.907,350.681 313.148 C 345.643 319.938,340.896 325.386,333.704 332.630 C 325.878 340.513,321.134 344.691,313.188 350.697 C 310.926 352.408,307.324 354.951,305.185 356.349 C 303.046 357.747,301.127 359.027,300.920 359.194 C 300.713 359.360,299.747 359.964,298.774 360.534 C 297.800 361.105,297.076 361.644,297.164 361.732 C 297.354 361.922,305.886 356.473,310.370 353.298 C 319.130 347.096,332.156 335.517,339.083 327.776 C 340.630 326.047,347.007 318.621,347.507 317.966 C 347.664 317.761,348.209 317.093,348.717 316.481 C 349.609 315.410,354.955 308.020,356.488 305.741 C 359.298 301.560,361.895 297.327,361.742 297.175 C 361.643 297.075,360.924 298.045,360.144 299.330 M55.285 320.559 C 59.753 326.557,74.038 340.793,80.741 345.926 C 81.406 346.435,82.239 347.102,82.593 347.407 C 82.946 347.713,83.783 348.380,84.454 348.889 C 85.124 349.398,85.855 349.989,86.077 350.203 C 86.300 350.416,87.315 351.134,88.333 351.798 C 90.423 353.159,90.680 353.379,83.157 347.366 C 74.059 340.094,64.394 330.802,57.678 322.870 C 54.579 319.211,53.517 318.184,55.285 320.559 M90.370 353.259 C 90.370 353.768,106.218 363.946,107.963 364.557 L 108.704 364.817 107.963 364.242 C 107.556 363.926,106.139 363.065,104.815 362.328 C 103.491 361.591,99.699 359.188,96.389 356.988 C 93.079 354.789,90.370 353.111,90.370 353.259 M292.963 363.946 C 288.470 366.542,280.281 370.670,276.555 372.218 C 274.966 372.878,273.756 373.509,273.866 373.619 C 274.299 374.052,286.623 368.043,294.815 363.404 C 296.821 362.268,296.830 362.262,296.636 362.068 C 296.551 361.983,294.898 362.828,292.963 363.946 M108.889 364.962 C 108.889 365.172,111.174 366.447,113.056 367.287 C 114.937 368.127,114.097 367.430,111.759 366.212 C 108.846 364.693,108.889 364.712,108.889 364.962 M114.444 367.961 C 114.444 368.284,124.517 373.000,124.920 372.866 C 125.134 372.795,124.417 372.353,123.327 371.885 C 122.238 371.416,119.853 370.300,118.028 369.405 C 114.576 367.713,114.444 367.660,114.444 367.961 M127.241 374.015 C 127.434 374.186,128.093 374.507,128.704 374.728 C 129.315 374.949,131.195 375.665,132.881 376.320 C 134.567 376.974,136.037 377.420,136.147 377.310 C 136.256 377.201,135.710 376.905,134.932 376.654 C 134.155 376.402,132.153 375.636,130.484 374.950 C 127.402 373.684,126.608 373.455,127.241 374.015 M269.713 375.077 C 267.823 375.805,266.347 376.470,266.431 376.554 C 266.621 376.745,272.647 374.472,273.130 374.028 C 273.620 373.577,273.562 373.594,269.713 375.077 M262.147 377.890 C 260.375 378.527,258.989 379.112,259.067 379.190 C 259.247 379.370,265.248 377.362,265.722 376.963 C 266.308 376.470,265.557 376.665,262.147 377.890 M136.870 377.714 C 137.064 377.883,139.472 378.730,142.222 379.597 C 144.972 380.463,147.605 381.325,148.073 381.512 C 148.541 381.699,149.291 381.840,149.740 381.825 C 150.188 381.810,148.722 381.240,146.481 380.557 C 144.241 379.874,141.170 378.886,139.657 378.362 C 136.675 377.327,136.336 377.248,136.870 377.714 M255.370 380.179 C 253.944 380.649,252.895 381.052,253.037 381.073 C 253.507 381.142,257.380 380.052,258.049 379.663 C 259.052 379.079,258.219 379.240,255.370 380.179 M250.926 381.481 L 250.185 381.800 250.926 381.820 C 251.333 381.831,251.917 381.679,252.222 381.481 C 252.958 381.006,252.033 381.006,250.926 381.481 M150.901 382.183 C 151.041 382.408,151.494 382.593,151.909 382.593 C 152.324 382.593,153.568 382.855,154.673 383.177 C 155.777 383.498,156.878 383.695,157.118 383.615 C 157.358 383.535,156.313 383.177,154.796 382.820 C 153.279 382.462,151.724 382.081,151.343 381.971 C 150.894 381.843,150.738 381.918,150.901 382.183 M247.963 382.237 C 247.352 382.407,245.935 382.788,244.815 383.084 C 243.694 383.380,243.028 383.638,243.333 383.658 C 244.025 383.704,249.634 382.341,249.916 382.059 C 250.195 381.780,249.318 381.860,247.963 382.237 M159.444 384.250 C 160.463 384.521,161.630 384.749,162.037 384.756 L 162.778 384.768 162.037 384.472 C 161.630 384.310,160.463 384.082,159.444 383.966 L 157.593 383.756 159.444 384.250 M238.519 384.444 L 237.593 384.741 238.519 384.741 C 239.028 384.741,239.861 384.608,240.370 384.444 L 241.296 384.148 240.370 384.148 C 239.861 384.148,239.028 384.281,238.519 384.444 M163.889 385.166 C 164.593 385.487,167.331 385.708,167.006 385.418 C 166.921 385.342,166.019 385.179,165.000 385.055 C 163.753 384.903,163.390 384.939,163.889 385.166 M234.630 385.185 L 233.519 385.468 234.630 385.475 C 235.241 385.479,236.157 385.348,236.667 385.185 L 237.593 384.889 236.667 384.896 C 236.157 384.899,235.241 385.030,234.630 385.185 M167.963 385.885 C 168.883 386.296,173.407 386.967,176.852 387.203 C 179.805 387.406,178.645 387.168,172.407 386.292 C 170.778 386.063,168.944 385.803,168.333 385.715 C 167.448 385.587,167.373 385.621,167.963 385.885 M230.185 385.989 C 228.963 386.177,226.296 386.566,224.259 386.853 L 220.556 387.376 223.756 387.176 C 225.516 387.067,227.599 386.828,228.385 386.646 C 229.172 386.463,230.398 386.307,231.111 386.299 C 231.824 386.291,232.657 386.123,232.963 385.926 C 233.646 385.485,233.419 385.490,230.185 385.989 M181.844 387.782 C 182.960 387.950,186.210 388.173,189.066 388.277 C 193.496 388.437,193.742 388.420,190.741 388.160 C 184.941 387.657,179.471 387.425,181.844 387.782 M213.333 387.816 C 206.702 388.288,206.003 388.461,211.537 388.260 C 216.510 388.079,222.390 387.492,219.074 387.507 C 218.259 387.510,215.676 387.650,213.333 387.816 " stroke="none" fill="#ffffff" fill-rule="evenodd"></path></g></svg>